<svg xmlns="http://www.w3.org/2000/svg" viewBox="0 0 700 700"><path d="M560 157.15a58.327 58.327 0 0 0-32.2-52.149l-61.132-30.566V11.669A11.67 11.67 0 0 0 455 .001H245c-6.442 0-11.668 5.223-11.668 11.668v66.148c-18.785 24.965-35 41.535-35 73.852v350a58.337 58.337 0 0 0 58.336 58.332h245a58.32 58.32 0 0 0 41.246-17.086A58.324 58.324 0 0 0 560 501.669c0-110.71 6.066-115.5-21.934-143.38-2.207-2.191-3.45-5.176-3.45-8.285s1.243-6.094 3.45-8.285c28.117-28 21.934-27.414 21.934-184.57zM256.67 23.33h186.66v46.668h-23.332V58.33c0-6.441-5.223-11.664-11.668-11.664-6.441 0-11.664 5.223-11.664 11.664v11.668h-35V58.33c0-6.441-5.227-11.664-11.668-11.664S338.33 51.889 338.33 58.33v11.668h-35V58.33c0-6.441-5.223-11.664-11.664-11.664-6.445 0-11.668 5.223-11.668 11.664v11.668h-23.332zm264.95 301.93c-6.555 6.563-10.238 15.461-10.238 24.734s3.684 18.172 10.238 24.734c19.25 19.25 15.051 12.25 15.051 126.93a34.984 34.984 0 0 1-10.254 24.746 34.986 34.986 0 0 1-24.746 10.254h-245a34.986 34.986 0 0 1-24.75-10.254 34.998 34.998 0 0 1-10.25-24.746v-350c0-24.035 12.832-36.516 29.168-58.332l201.36-.004 65.102 32.551a35.005 35.005 0 0 1 19.367 31.266c0 163.8 4.2 148.75-15.05 168.12z"/><path d="M493.96 146.42c-21.465-10.734-37.102-22.516-57.398-10.148v-.004a34.999 34.999 0 0 0-16.566 29.867v139.18a35.013 35.013 0 0 0 10.25 24.75 35.014 35.014 0 0 0 24.75 10.25c18.316 0 26.016-11.668 47.832-33.715 14.699-14.582 10.266-24.148 10.266-128.33l.004-.004c.121-6.57-1.61-13.039-4.992-18.672s-8.285-10.199-14.145-13.176zm-3.965 135.57c0 6.3-1.867 6.766-26.715 31.617a11.675 11.675 0 0 1-12.758 2.559 11.673 11.673 0 0 1-7.195-10.844c0-148.87-2.332-144.32 5.484-149.1a11.674 11.674 0 0 1 11.668-.582c24.5 12.367 29.516 13.066 29.516 22.168z"/><path d="M431.67 361.67a34.986 34.986 0 0 1-24.75-10.254 34.998 34.998 0 0 1-10.25-24.746V163.33a34.984 34.984 0 0 0-10.254-24.746 34.986 34.986 0 0 0-24.746-10.254h-81.668a35 35 0 0 0-35 35v315a35 35 0 0 0 35 35h198.33a35 35 0 0 0 35-35c0-40.602 5.016-70-20.883-95.785v.004a75.712 75.712 0 0 0-60.781-20.883zM280 151.67h81.668c3.094 0 6.059 1.227 8.25 3.414a11.673 11.673 0 0 1 3.414 8.25v86.684a51.918 51.918 0 0 0-54.95 10.035c-12.602 12.715-38.148 5.133-50.05.582v-97.3c0-6.442 5.226-11.665 11.667-11.665zm210 326.66a11.67 11.67 0 0 1-11.668 11.668h-198.33c-6.441 0-11.668-5.223-11.668-11.668V285.25c23.332 7.234 49.352 8.516 66.617-8.633 11.668-11.668 29.75-5.832 38.383-1.515v51.566A58.337 58.337 0 0 0 431.67 385h10.266a48.065 48.065 0 0 1 48.066 48.066z"/><path d="M338.33 408.33c6.445 0 11.668-5.223 11.668-11.664 0-6.445-5.223-11.668-11.668-11.668a46.667 46.667 0 0 0-40.414 70 46.666 46.666 0 0 0 40.414 23.332c6.445 0 11.668-5.223 11.668-11.664 0-6.445-5.223-11.668-11.668-11.668a23.336 23.336 0 0 1-20.207-35 23.335 23.335 0 0 1 20.207-11.668z"/><path d="M373.33 396.67v70c0 6.441 5.227 11.664 11.668 11.664s11.668-5.223 11.668-11.664v-70c0-6.445-5.227-11.668-11.668-11.668s-11.668 5.223-11.668 11.668z"/></svg>
