<svg xmlns="http://www.w3.org/2000/svg" viewBox="0 0 375 375">
    <path d="M298.5 115.5a29.862 29.862 0 0 0-7-2 90.245 90.245 0 0 0-12 4.5 408.819 408.819 0 0 0-44 32c.667.667 1.333.667 2 0a364.473 364.473 0 0 1 54-32 34.033 34.033 0 0 1 8-1.5c2.769 1.271 4.102 3.438 4 6.5a66.584 66.584 0 0 1-3.5 12.5 803.375 803.375 0 0 0-37.5 76c-.904.709-1.237 1.709-1 3-.838.342-1.172 1.008-1 2-.838.342-1.172 1.008-1 2-2.349 6.357-7.016 9.523-14 9.5a667.067 667.067 0 0 1-114 0 57.931 57.931 0 0 1-16-4c-1.081-1.711-.748-3.211 1-4.5 1.174-1.014 1.84-2.347 2-4 1-.333 1.667-1 2-2 .901-.79 1.568-1.79 2-3 20.65-27.817 45.983-50.317 76-67.5 15.844-8.878 32.844-13.211 51-13a163.25 163.25 0 0 1 34-17c3.597-1.277 7.264-1.61 11-1 1.824.66 3.157 1.827 4 3.5Z"/>
    <path d="M122.5 210.5c-.432 1.21-1.099 2.21-2 3-20.002 1.17-39.336 5.337-58 12.5-6.644 4.815-5.978 8.815 2 12a197.628 197.628 0 0 0 17 5 592.644 592.644 0 0 0 51 6.5 18.453 18.453 0 0 0-6 .5c3.611 4.773 7.611 8.94 12 12.5a712.58 712.58 0 0 1-67-8.5 107.529 107.529 0 0 1-31-11c-3.712-2.602-4.879-6.102-3.5-10.5a40.25 40.25 0 0 1 12.5-8.5 368.042 368.042 0 0 1 73-13.5Z"/>
    <path d="M262.5 211.5c24.095 1.848 47.428 7.014 70 15.5a25.55 25.55 0 0 1 6.5 5.5c.755 2.803.422 5.47-1 8-8.954 6.1-18.787 10.267-29.5 12.5a658.433 658.433 0 0 1-25 4.5 85.674 85.674 0 0 0-5.5-10c-1.356-.88-2.856-1.214-4.5-1 11.697-1.669 23.363-4.169 35-7.5a46.928 46.928 0 0 0 8-4.5c1.552-3.067.885-5.567-2-7.5-16.876-7.37-34.542-11.537-53-12.5-.237-1.291.096-2.291 1-3Z"/>
    <path d="M118.5 215.5c-.16 1.653-.826 2.986-2 4-6.982-.17-13.982.997-21 3.5-4.125 3.318-3.458 5.652 2 7a212.411 212.411 0 0 0 20 4.5c.02 3.323 1.687 5.989 5 8a407.016 407.016 0 0 1-33-5.5 45.898 45.898 0 0 1-10-4c-1.624-1.117-2.624-2.617-3-4.5 1.84-2.989 4.506-5.156 8-6.5a169.553 169.553 0 0 1 34-6.5Z"/>
    <path d="M260.5 216.5a110.364 110.364 0 0 1 32 6.5c8.171 2.77 8.838 6.437 2 11a132.77 132.77 0 0 1-22 5.5c-.827-5.15-3.827-7.15-9-6 5.722-.731 11.389-2.231 17-4.5 3.895-2.301 3.562-4.301-1-6a73.641 73.641 0 0 0-20-4.5c-.172-.992.162-1.658 1-2Z"/>
    <path d="M263.5 233.5c5.173-1.15 8.173.85 9 6a446.086 446.086 0 0 1-53 5.5 795.804 795.804 0 0 1-97-2.5c-3.313-2.011-4.98-4.677-5-8a786.746 786.746 0 0 0 146-1Z"/>
    <path d="M273.5 246.5c1.644-.214 3.144.12 4.5 1a85.674 85.674 0 0 1 5.5 10 830.544 830.544 0 0 1-145 5c-4.389-3.56-8.389-7.727-12-12.5a18.453 18.453 0 0 1 6-.5 778.278 778.278 0 0 0 141-3Z"/>
</svg>
