<svg xmlns="http://www.w3.org/2000/svg" viewBox="0 0 910 910"><path d="M360 39.46c11.47-1.58 30.01-.8 41 2.9 16.64 5.6 41.52 24.9 55 36.51 39.7 34.18 76.15 72.98 106.02 116.13 36.45 52.63 67.43 109.77 83.86 172 4.52 17.09 10.91 45.67 11.12 63l1 22-1 25-1.85 18c-3.04 25.46-8.71 49.67-16.82 74-20.95 62.85-53.28 121.56-93.68 174-20.11 26.1-34.56 40.91-57.65 64-21.83 21.83-55.65 52.85-86 60.84-10.17 2.68-19.6 2.28-30 2.16-19.54-.24-32.8-22.93-41.42-38-24.07-42.05-40.31-93.96-51.46-141-7.94-33.46-14.63-71.81-18.28-106L255 527l-1-19-.96-10v-12L252 471v-64l1-17 2.83-39c5.49-57.43 12.54-97.73 23.97-154 7.35-36.17 20.03-81.85 35.84-115 9.41-19.74 21.9-37.55 44.36-42.54ZM633 442c-3.28-40.53-17.74-85.9-34.14-123-30.25-68.43-73.99-131.13-126.86-184-19.47-19.47-39.54-37.84-62-53.86-7.28-5.19-24.32-15.92-33-16.92-9.14-1.04-20.15 9.2-25.33 15.78-14.73 18.69-22.91 43.65-30.34 66-11.78 35.48-21.08 80.98-27.75 118-5.93 32.84-10.53 65.8-13.75 99l-1.92 25-.91 10-1 20v24h357Zm0 24H276l1 22 1 14c.23 19.89 4.37 59.75 7.27 80l3.48 25c.4 2.41.84 7.45 2.83 8.98 1.65 1.26 5.38 1.02 7.42 1.02h281c2.13 0 5.58.25 7.37-.99 1.85-1.3 4.31-6.82 5.37-9.01l10.41-24c10.2-23.95 20.43-58.36 25.24-84l3.33-21 1.28-12Zm-58 175H295l10.13 46c9.74 38.97 22.64 77.03 40.62 113 5.97 11.94 12.47 23.78 21.17 33.99 2.8 3.28 8.76 9.7 13.08 10.41 3.79.61 14.26-3.98 18-5.71 15.32-7.07 33.37-21.42 46-32.64L471 780c27.96-27.96 46.01-48.56 68.72-81 9.02-12.88 29.4-44.42 35.28-58Z"/></svg>
